# File generated by ImageToStl.com - Free Image and 3D model conversion tools

o obj1
v -1 0 1
v -1 0 -1
v 1 -0 -1
v 1 -0 1
v 1 2 -1
v 1 2 1
v 0.156077 1.61422 1.001
v 0.821548 1.61422 1.001
v 0.821548 1.349662 1.001
v 0.156077 1.351555 1.001
v 0.156077 1.61422 1.098107
v 0.156077 1.351555 1.098107
v 0.821548 1.349662 1.098107
v 0.821548 1.61422 1.098107
v 1.106132 0.194121 0.359096
v 1.106132 0.912313 0.359096
v 1.106132 0.912313 -0.359096
v 1.106132 0.194121 -0.359096
v 1.824324 0.912313 -0.359096
v 1.824324 0.194121 -0.359096
v 1.824324 0.912313 0.359096
v 1.824324 0.194121 0.359096
v -1 2 1
v -0.090517 0.994454 1.142449
v -0.090517 0.994454 0.961414
v 0.090517 0.994454 0.961414
v 0.090517 0.994454 1.142449
v 0.090517 1.175489 0.961414
v -0.090517 1.175489 0.961414
v -0.090517 1.175489 1.142449
v 0.090517 1.175489 1.142449
v -1 2 -1
v -0.156077 1.61422 1.001
v -0.156077 1.351555 1.001
v -0.821548 1.349662 1.001
v -0.821548 1.61422 1.001
v -0.156077 1.61422 1.098107
v -0.821548 1.61422 1.098107
v -0.821548 1.349662 1.098107
v -0.156077 1.351555 1.098107
v -1.106132 0.194121 0.359096
v -1.106132 0.194121 -0.359096
v -1.106132 0.912313 -0.359096
v -1.106132 0.912313 0.359096
v -1.824324 0.194121 -0.359096
v -1.824324 0.912313 -0.359096
v -1.824324 0.194121 0.359096
v -1.824324 0.912313 0.359096
v 0.090517 1.101124 1.142449
v 0.090517 1.108239 1.142449
v -0.090517 1.101124 1.142449
v -0.090517 1.108239 1.142449
v -0.090517 1.100126 0.961414
v 0.090517 1.100126 0.961414
v -0.090517 1.107395 0.961414
v 0.090517 1.107395 0.961414
vn -0 -1 -0
vn 1 -0 -0
vn -0 0 -1
vn 0 -0 1
vn 0 1 0
vn -0.0028 -1 -0
vn -1 0 0
vn 0.0028 -1 -0
vt 0.9444 0.0669
vt 0.0561 0.0669
f 1/1/1 2/1/1 3/1/1
f 1/1/1 3/1/1 4/1/1
f 5/1/2 6/1/2 4/1/2
f 5/1/2 4/1/2 3/1/2
f 7/2/3 8/2/3 9/2/3
f 7/2/3 9/2/3 10/2/3
f 11/2/4 12/2/4 13/2/4
f 11/2/4 13/2/4 14/2/4
f 9/2/2 8/2/2 14/2/2
f 9/2/2 14/2/2 13/2/2
f 8/2/5 7/2/5 11/2/5
f 8/2/5 11/2/5 14/2/5
f 10/2/6 9/2/6 13/2/6
f 10/2/6 13/2/6 12/2/6
f 7/2/7 10/2/7 12/2/7
f 7/2/7 12/2/7 11/2/7
f 15/1/7 16/1/7 17/1/7
f 15/1/7 17/1/7 18/1/7
f 18/1/3 17/1/3 19/1/3
f 18/1/3 19/1/3 20/1/3
f 20/1/2 19/1/2 21/1/2
f 20/1/2 21/1/2 22/1/2
f 22/1/4 21/1/4 16/1/4
f 22/1/4 16/1/4 15/1/4
f 18/1/1 20/1/1 22/1/1
f 18/1/1 22/1/1 15/1/1
f 19/1/5 17/1/5 16/1/5
f 19/1/5 16/1/5 21/1/5
f 6/1/4 23/1/4 1/1/4
f 6/1/4 1/1/4 4/1/4
f 24/1/1 25/1/1 26/1/1
f 24/1/1 26/1/1 27/1/1
f 28/1/5 29/1/5 30/1/5
f 28/1/5 30/1/5 31/1/5
f 2/1/3 32/1/3 5/1/3
f 2/1/3 5/1/3 3/1/3
f 5/1/5 32/1/5 23/1/5
f 5/1/5 23/1/5 6/1/5
f 32/1/7 2/1/7 1/1/7
f 32/1/7 1/1/7 23/1/7
f 33/2/3 34/2/3 35/2/3
f 33/2/3 35/2/3 36/2/3
f 37/2/4 38/2/4 39/2/4
f 37/2/4 39/2/4 40/2/4
f 35/2/7 39/2/7 38/2/7
f 35/2/7 38/2/7 36/2/7
f 36/2/5 38/2/5 37/2/5
f 36/2/5 37/2/5 33/2/5
f 34/2/8 40/2/8 39/2/8
f 34/2/8 39/2/8 35/2/8
f 33/2/2 37/2/2 40/2/2
f 33/2/2 40/2/2 34/2/2
f 41/1/2 42/1/2 43/1/2
f 41/1/2 43/1/2 44/1/2
f 42/1/3 45/1/3 46/1/3
f 42/1/3 46/1/3 43/1/3
f 45/1/7 47/1/7 48/1/7
f 45/1/7 48/1/7 46/1/7
f 47/1/4 41/1/4 44/1/4
f 47/1/4 44/1/4 48/1/4
f 42/1/1 41/1/1 47/1/1
f 42/1/1 47/1/1 45/1/1
f 46/1/5 48/1/5 44/1/5
f 46/1/5 44/1/5 43/1/5
f 26/1/2 49/1/2 27/1/2
f 49/1/2 26/1/2 50/1/2
f 50/1/2 26/1/2 31/1/2
f 31/1/2 26/1/2 28/1/2
f 49/1/4 24/1/4 27/1/4
f 24/1/4 49/1/4 51/1/4
f 51/1/4 49/1/4 50/1/4
f 51/1/4 50/1/4 52/1/4
f 52/1/4 50/1/4 31/1/4
f 52/1/4 31/1/4 30/1/4
f 29/1/7 52/1/7 30/1/7
f 52/1/7 29/1/7 51/1/7
f 51/1/7 29/1/7 24/1/7
f 24/1/7 29/1/7 25/1/7
f 53/1/3 26/1/3 25/1/3
f 26/1/3 53/1/3 54/1/3
f 54/1/3 53/1/3 55/1/3
f 54/1/3 55/1/3 56/1/3
f 56/1/3 55/1/3 29/1/3
f 56/1/3 29/1/3 28/1/3
# Vertices: 56, normals: 8, texture coordinates: 2, faces: 84

o obj2
v 0.402564 0.939646 1.040455
v 0.402564 1.289286 1.040455
v 0.402564 1.289286 0.959556
v 0.402564 0.939646 0.959556
v 0.57339 1.289286 0.959556
v 0.57339 0.939646 0.959556
v 0.57339 1.289286 1.040455
v 0.57339 0.939646 1.040455
v -0.402564 0.939646 1.040455
v -0.402564 0.939646 0.959556
v -0.402564 1.289286 0.959556
v -0.402564 1.289286 1.040455
v -0.57339 0.939646 0.959556
v -0.57339 1.289286 0.959556
v -0.57339 0.939646 1.040455
v -0.57339 1.289286 1.040455
vn -1 0 0
vn -0 0 -1
vn 1 -0 -0
vn 0 -0 1
vn -0 -1 -0
vn 0 1 0
vt 0.531 0.532
f 57/3/9 58/3/9 59/3/9
f 57/3/9 59/3/9 60/3/9
f 60/3/10 59/3/10 61/3/10
f 60/3/10 61/3/10 62/3/10
f 62/3/11 61/3/11 63/3/11
f 62/3/11 63/3/11 64/3/11
f 64/3/12 63/3/12 58/3/12
f 64/3/12 58/3/12 57/3/12
f 60/3/13 62/3/13 64/3/13
f 60/3/13 64/3/13 57/3/13
f 61/3/14 59/3/14 58/3/14
f 61/3/14 58/3/14 63/3/14
f 65/3/11 66/3/11 67/3/11
f 65/3/11 67/3/11 68/3/11
f 66/3/10 69/3/10 70/3/10
f 66/3/10 70/3/10 67/3/10
f 69/3/9 71/3/9 72/3/9
f 69/3/9 72/3/9 70/3/9
f 71/3/12 65/3/12 68/3/12
f 71/3/12 68/3/12 72/3/12
f 66/3/13 65/3/13 71/3/13
f 66/3/13 71/3/13 69/3/13
f 70/3/14 72/3/14 68/3/14
f 70/3/14 68/3/14 67/3/14
# Vertices: 16, normals: 6, texture coordinates: 1, faces: 24

