mtllib gold_star.mtl
o Star_Star_0
usemtl Star
v 12.680698111339694 -4.120207789864153 -0.5855478953377672
v -4.440048442921913e-7 -0.000001878448343530632 -5.731116166760178
v 28.618573502781075 9.298741037396203 -0.5855491278877257
v 28.618573502781075 9.298741037396203 -0.5855491278877257
v -4.440048442921913e-7 -0.000001878448343530632 -5.731116166760178
v 7.837102238004601 10.786846778060228 -0.5855492511216365
v 17.687255464034024 -24.344413308582066 -0.5855461501172023
v -4.440048442921913e-7 -0.000001878448343530632 -5.731116166760178
v 12.680698111339694 -4.120207789864153 -0.5855478953377672
v 0.0000020382874025990965 -13.33327368501029 -0.5855471095945376
v -4.440048442921913e-7 -0.000001878448343530632 -5.731116166760178
v 17.687255464034024 -24.344413308582066 -0.5855461501172023
v -17.687249741988254 -24.344417123279246 -0.5855461501165808
v -4.440048442921913e-7 -0.000001878448343530632 -5.731116166760178
v 0.0000020382874025990965 -13.33327368501029 -0.5855471095945376
v -12.6806971576654 -4.120210174049891 -0.5855478953373787
v -4.440048442921913e-7 -0.000001878448343530632 -5.731116166760178
v -17.687249741988254 -24.344417123279246 -0.5855461501165808
v -28.618575410129665 9.298737222699023 -0.5855491278871042
v -4.440048442921913e-7 -0.000001878448343530632 -5.731116166760178
v -12.6806971576654 -4.120210174049891 -0.5855478953373787
v -7.837101284330306 10.786844870711638 -0.5855492511213257
v -4.440048442921913e-7 -0.000001878448343530632 -5.731116166760178
v -28.618575410129665 9.298737222699023 -0.5855491278871042
v -4.440048442921913e-7 30.09134788007927 -0.5855509657126201
v -4.440048442921913e-7 -0.000001878448343530632 -5.731116166760178
v -7.837101284330306 10.786844870711638 -0.5855492511213257
v 7.837102238004601 10.786846778060228 -0.5855492511216365
v -4.440048442921913e-7 -0.000001878448343530632 -5.731116166760178
v -4.440048442921913e-7 30.09134788007927 -0.5855509657126201
v 12.680698111339694 -4.120207599068281 0.585548820639333
v 28.618573502781075 9.298741228192075 0.5855475880893745
v -4.440048442921913e-7 -4.105757574297724e-8 5.731116166760491
v 28.618573502781075 9.298741228192075 0.5855475880893745
v 7.837102238004601 10.7868469688561 0.5855474648554637
v -4.440048442921913e-7 -4.105757574297724e-8 5.731116166760491
v 17.687255464034024 -24.344413117786196 0.5855505658598978
v 12.680698111339694 -4.120207599068281 0.585548820639333
v -4.440048442921913e-7 -4.105757574297724e-8 5.731116166760491
v 0.0000020382874025990965 -13.333273494214419 0.5855496063825626
v 17.687255464034024 -24.344413117786196 0.5855505658598978
v -4.440048442921913e-7 -4.105757574297724e-8 5.731116166760491
v -17.687249741988254 -24.344416932483377 0.5855505658605193
v 0.0000020382874025990965 -13.333273494214419 0.5855496063825626
v -4.440048442921913e-7 -4.105757574297724e-8 5.731116166760491
v -12.6806971576654 -4.120209983254019 0.5855488206397215
v -17.687249741988254 -24.344416932483377 0.5855505658605193
v -4.440048442921913e-7 -4.105757574297724e-8 5.731116166760491
v -28.618575410129665 9.298737413494894 0.585547588089996
v -12.6806971576654 -4.120209983254019 0.5855488206397215
v -4.440048442921913e-7 -4.105757574297724e-8 5.731116166760491
v -7.837101284330306 10.78684506150751 0.5855474648557745
v -28.618575410129665 9.298737413494894 0.585547588089996
v -4.440048442921913e-7 -4.105757574297724e-8 5.731116166760491
v -4.440048442921913e-7 30.091348070875142 0.5855457502644801
v -7.837101284330306 10.78684506150751 0.5855474648557745
v -4.440048442921913e-7 -4.105757574297724e-8 5.731116166760491
v 7.837102238004601 10.7868469688561 0.5855474648554637
v -4.440048442921913e-7 30.091348070875142 0.5855457502644801
v -4.440048442921913e-7 -4.105757574297724e-8 5.731116166760491
v -4.440048442921913e-7 30.09134788007927 -0.5855509657126201
v -4.440048442921913e-7 30.091348070875142 0.5855457502644801
v 7.837102238004601 10.7868469688561 0.5855474648554637
v 7.837102238004601 10.786846778060228 -0.5855492511216365
v 0.0000020382874025990965 -13.33327368501029 -0.5855471095945376
v 0.0000020382874025990965 -13.333273494214419 0.5855496063825626
v -17.687249741988254 -24.344416932483377 0.5855505658605193
v -17.687249741988254 -24.344417123279246 -0.5855461501165808
v 28.618573502781075 9.298741037396203 -0.5855491278877257
v 28.618573502781075 9.298741228192075 0.5855475880893745
v 12.680698111339694 -4.120207599068281 0.585548820639333
v 12.680698111339694 -4.120207789864153 -0.5855478953377672
v -28.618575410129665 9.298737222699023 -0.5855491278871042
v -28.618575410129665 9.298737413494894 0.585547588089996
v -7.837101284330306 10.78684506150751 0.5855474648557745
v -7.837101284330306 10.786844870711638 -0.5855492511213257
v 12.680698111339694 -4.120207789864153 -0.5855478953377672
v 12.680698111339694 -4.120207599068281 0.585548820639333
v 17.687255464034024 -24.344413117786196 0.5855505658598978
v 17.687255464034024 -24.344413308582066 -0.5855461501172023
v -7.837101284330306 10.786844870711638 -0.5855492511213257
v -7.837101284330306 10.78684506150751 0.5855474648557745
v -4.440048442921913e-7 30.091348070875142 0.5855457502644801
v -4.440048442921913e-7 30.09134788007927 -0.5855509657126201
v -17.687249741988254 -24.344417123279246 -0.5855461501165808
v -17.687249741988254 -24.344416932483377 0.5855505658605193
v -12.6806971576654 -4.120209983254019 0.5855488206397215
v -12.6806971576654 -4.120210174049891 -0.5855478953373787
v 7.837102238004601 10.786846778060228 -0.5855492511216365
v 7.837102238004601 10.7868469688561 0.5855474648554637
v 28.618573502781075 9.298741228192075 0.5855475880893745
v 28.618573502781075 9.298741037396203 -0.5855491278877257
v -12.6806971576654 -4.120210174049891 -0.5855478953373787
v -12.6806971576654 -4.120209983254019 0.5855488206397215
v -28.618575410129665 9.298737413494894 0.585547588089996
v -28.618575410129665 9.298737222699023 -0.5855491278871042
v 17.687255464034024 -24.344413308582066 -0.5855461501172023
v 17.687255464034024 -24.344413117786196 0.5855505658598978
v 0.0000020382874025990965 -13.333273494214419 0.5855496063825626
v 0.0000020382874025990965 -13.33327368501029 -0.5855471095945376
vt 0.8127193450927734 0.8579387664794922
vt 0.7781658172607422 0.7318058013916016
vt 0.6884574890136719 1
vt 0.6884574890136719 1
vt 0.7781658172607422 0.7318058013916016
vt 0.6746768951416016 0.8117656707763672
vt 1 0.9064292907714844
vt 0.7781658172607422 0.7318058013916016
vt 0.8127193450927734 0.8579387664794922
vt 0.8980350494384766 0.7446804046630859
vt 0.7781658172607422 0.7318058013916016
vt 1 0.9064292907714844
vt 1 0.5864124298095703
vt 0.7781658172607422 0.7318058013916016
vt 0.8980350494384766 0.7446804046630859
vt 0.8127193450927734 0.6285076141357422
vt 0.7781658172607422 0.7318058013916016
vt 1 0.5864124298095703
vt 0.6884574890136719 0.48220252990722656
vt 0.7781658172607422 0.7318058013916016
vt 0.8127193450927734 0.6285076141357422
vt 0.6746768951416016 0.6699676513671875
vt 0.7781658172607422 0.7318058013916016
vt 0.6884574890136719 0.48220252990722656
vt 0.4959125518798828 0.7378139495849609
vt 0.7781658172607422 0.7318058013916016
vt 0.6746768951416016 0.6699676513671875
vt 0.6746768951416016 0.8117656707763672
vt 0.7781658172607422 0.7318058013916016
vt 0.4959125518798828 0.7378139495849609
vt 0.17586517333984375 0.6651401519775391
vt 0 0.7420654296875
vt 0.2648582458496094 0.7279472351074219
vt 0 0.7420654296875
vt 0.17586517333984375 0.8092746734619141
vt 0.2648582458496094 0.7279472351074219
vt 0.1894207000732422 0.4736671447753906
vt 0.17586517333984375 0.6651401519775391
vt 0.2648582458496094 0.7279472351074219
vt 0.31166839599609375 0.6168479919433594
vt 0.1894207000732422 0.4736671447753906
vt 0.2648582458496094 0.7279472351074219
vt 0.4959125518798828 0.5657196044921875
vt 0.31166839599609375 0.6168479919433594
vt 0.2648582458496094 0.7279472351074219
vt 0.395599365234375 0.7311382293701172
vt 0.4959125518798828 0.5657196044921875
vt 0.2648582458496094 0.7279472351074219
vt 0.4959125518798828 0.8910121917724609
vt 0.395599365234375 0.7311382293701172
vt 0.2648582458496094 0.7279472351074219
vt 0.31166839599609375 0.8500633239746094
vt 0.4959125518798828 0.8910121917724609
vt 0.2648582458496094 0.7279472351074219
vt 0.1894207000732422 1
vt 0.31166839599609375 0.8500633239746094
vt 0.2648582458496094 0.7279472351074219
vt 0.17586517333984375 0.8092746734619141
vt 0.1894207000732422 1
vt 0.2648582458496094 0.7279472351074219
vt 0.5720412731170654 0.289212703704834
vt 0.5611656904220581 0.289212703704834
vt 0.5611656904220581 0.48220300674438477
vt 0.5720412135124207 0.48220300674438477
vt 0.5394145250320435 0.2892131805419922
vt 0.5285389423370361 0.2892131805419922
vt 0.5285389423370361 0.48220252990722656
vt 0.5394144654273987 0.48220252990722656
vt 0.5176633596420288 0.289212703704834
vt 0.5067877769470215 0.289212703704834
vt 0.5067877769470215 0.48220300674438477
vt 0.517663300037384 0.48220300674438477
vt 0.582916796207428 0.48220252990722656
vt 0.5937923789024353 0.48220252990722656
vt 0.5937923192977905 0.2892131805419922
vt 0.582916796207428 0.2892131805419922
vt 0.5829167366027832 0.2892131805419922
vt 0.5720411539077759 0.2892131805419922
vt 0.5720411539077759 0.48220252990722656
vt 0.5829166769981384 0.48220252990722656
vt 0.550290048122406 0.48220300674438477
vt 0.5611656308174133 0.48220300674438477
vt 0.5611655712127686 0.289212703704834
vt 0.550290048122406 0.289212703704834
vt 0.5394145846366882 0.48220252990722656
vt 0.5502901673316956 0.48220252990722656
vt 0.5502901077270508 0.2892131805419922
vt 0.5394145846366882 0.2892131805419922
vt 0.6046678423881531 0.2892131805419922
vt 0.5937923192977905 0.2892131805419922
vt 0.5937923192977905 0.48220252990722656
vt 0.6046679019927979 0.48220252990722656
vt 0.517663300037384 0.48220300674438477
vt 0.5285388827323914 0.48220300674438477
vt 0.5285388231277466 0.289212703704834
vt 0.517663300037384 0.289212703704834
vt 0.49591225385665894 0.48220252990722656
vt 0.5067878365516663 0.48220252990722656
vt 0.5067877769470215 0.2892131805419922
vt 0.49591225385665894 0.2892131805419922
vn 0.26654046952660654 -0.3165739435000401 -0.9103499966503925
vn 0.26654046952660654 -0.3165739435000401 -0.9103499966503925
vn 0.26654046952660654 -0.3165739435000401 -0.9103499966503925
vn 0.02955820793940408 0.4127819038764969 -0.910350159101159
vn 0.02955820793940408 0.4127819038764969 -0.910350159101159
vn 0.02955820793940408 0.4127819038764969 -0.910350159101159
vn 0.4017131629817081 0.09944514262816 -0.9103500416295354
vn 0.4017131629817081 0.09944514262816 -0.9103500416295354
vn 0.4017131629817081 0.09944514262816 -0.9103500416295354
vn -0.21871405980100758 -0.35132176426122463 -0.9103500304837374
vn -0.21871405980100758 -0.35132176426122463 -0.9103500304837374
vn -0.21871405980100758 -0.35132176426122463 -0.9103500304837374
vn 0.2187141614094402 -0.35132173012237866 -0.910350019246874
vn 0.2187141614094402 -0.35132173012237866 -0.910350019246874
vn 0.2187141614094402 -0.35132173012237866 -0.910350019246874
vn -0.4017131453512637 0.09944503395556387 -0.9103500612805885
vn -0.4017131453512637 0.09944503395556387 -0.9103500612805885
vn -0.4017131453512637 0.09944503395556387 -0.9103500612805885
vn -0.2665403782785996 -0.3165739171054025 -0.9103500325455274
vn -0.2665403782785996 -0.3165739171054025 -0.9103500325455274
vn -0.2665403782785996 -0.3165739171054025 -0.9103500325455274
vn -0.02955823786506123 0.4127820248082077 -0.9103501032951822
vn -0.02955823786506123 0.4127820248082077 -0.9103501032951822
vn -0.02955823786506123 0.4127820248082077 -0.9103501032951822
vn -0.3834451567070587 0.15566818084189998 -0.9103500586429776
vn -0.3834451567070587 0.15566818084189998 -0.9103500586429776
vn -0.3834451567070587 0.15566818084189998 -0.9103500586429776
vn 0.3834450559145928 0.1556681734174599 -0.9103501023669556
vn 0.3834450559145928 0.1556681734174599 -0.9103501023669556
vn 0.3834450559145928 0.1556681734174599 -0.9103501023669556
vn 0.2665404305084943 -0.3165738203328669 0.9103500509058043
vn 0.2665404305084943 -0.3165738203328669 0.9103500509058043
vn 0.2665404305084943 -0.3165738203328669 0.9103500509058043
vn 0.029558238442927567 0.412782150693926 0.9103500461957741
vn 0.029558238442927567 0.412782150693926 0.9103500461957741
vn 0.029558238442927567 0.412782150693926 0.9103500461957741
vn 0.40171317272539264 0.09944527037951044 0.9103500233745506
vn 0.40171317272539264 0.09944527037951044 0.9103500233745506
vn 0.40171317272539264 0.09944527037951044 0.9103500233745506
vn -0.21871415950652048 -0.35132160338342977 0.9103500686150644
vn -0.21871415950652048 -0.35132160338342977 0.9103500686150644
vn -0.21871415950652048 -0.35132160338342977 0.9103500686150644
vn 0.21871425650429568 -0.351321615576588 0.9103500406054966
vn 0.21871425650429568 -0.351321615576588 0.9103500406054966
vn 0.21871425650429568 -0.351321615576588 0.9103500406054966
vn -0.4017130842044327 0.0994451365613549 0.9103500770545668
vn -0.4017130842044327 0.0994451365613549 0.9103500770545668
vn -0.4017130842044327 0.0994451365613549 0.9103500770545668
vn -0.2665403405347027 -0.31657373025266416 0.9103501085744747
vn -0.2665403405347027 -0.31657373025266416 0.9103501085744747
vn -0.2665403405347027 -0.31657373025266416 0.9103501085744747
vn -0.02955826945945114 0.41278219745263606 0.9103500239867824
vn -0.02955826945945114 0.41278219745263606 0.9103500239867824
vn -0.02955826945945114 0.41278219745263606 0.9103500239867824
vn -0.3834451401811175 0.1556683338498466 0.9103500394397179
vn -0.3834451401811175 0.1556683338498466 0.9103500394397179
vn -0.3834451401811175 0.1556683338498466 0.9103500394397179
vn 0.38344501129980263 0.15566837182452084 0.9103500872317181
vn 0.38344501129980263 0.15566837182452084 0.9103500872317181
vn 0.38344501129980263 0.15566837182452084 0.9103500872317181
vn 0.9265561216191293 0.3761565544957497 -6.128368124909173e-8
vn 0.9265561216191293 0.3761565544957497 -6.128368124909173e-8
vn 0.9265561216191293 0.3761565544957497 -6.128368124909173e-8
vn 0.9265561216191293 0.3761565544957497 -6.128368124909173e-8
vn 0.5285006145535439 -0.8489329186788009 1.3830872749224045e-7
vn 0.5285006145535439 -0.8489329186788009 1.3830872749224045e-7
vn 0.5285006145535439 -0.8489329186788009 1.3830872749224045e-7
vn 0.5285006145535439 -0.8489329186788009 1.3830872749224045e-7
vn 0.6440677921139453 -0.7649684171006358 1.2462917388761685e-7
vn 0.6440677921139453 -0.7649684171006358 1.2462917388761685e-7
vn 0.6440677921139453 -0.7649684171006358 1.2462917388761685e-7
vn 0.6440677921139453 -0.7649684171006358 1.2462917388761685e-7
vn -0.07142452515996506 0.9974460071631182 -1.6250458070073188e-7
vn -0.07142452515996506 0.9974460071631182 -1.6250458070073188e-7
vn -0.07142452515996506 0.9974460071631182 -1.6250458070073188e-7
vn -0.07142452515996506 0.9974460071631182 -1.6250458070073188e-7
vn 0.970698878559651 0.2402991618026048 -3.914970259145424e-8
vn 0.970698878559651 0.2402991618026048 -3.914970259145424e-8
vn 0.970698878559651 0.2402991618026048 -3.914970259145424e-8
vn 0.970698878559651 0.2402991618026048 -3.914970259145424e-8
vn -0.9265561735541579 0.37615642656835413 -6.128366040707358e-8
vn -0.9265561735541579 0.37615642656835413 -6.128366040707358e-8
vn -0.9265561735541579 0.37615642656835413 -6.128366040707358e-8
vn -0.9265561735541579 0.37615642656835413 -6.128366040707358e-8
vn -0.9706989446001357 0.24029889502904705 -3.914965912852509e-8
vn -0.9706989446001357 0.24029889502904705 -3.914965912852509e-8
vn -0.9706989446001357 0.24029889502904705 -3.914965912852509e-8
vn -0.9706989446001357 0.24029889502904705 -3.914965912852509e-8
vn 0.07142445420046639 0.9974460122443416 -1.6250458152856823e-7
vn 0.07142445420046639 0.9974460122443416 -1.6250458152856823e-7
vn 0.07142445420046639 0.9974460122443416 -1.6250458152856823e-7
vn 0.07142445420046639 0.9974460122443416 -1.6250458152856823e-7
vn -0.6440676581094853 -0.764968529926132 1.2462919226922326e-7
vn -0.6440676581094853 -0.764968529926132 1.2462919226922326e-7
vn -0.6440676581094853 -0.764968529926132 1.2462919226922326e-7
vn -0.6440676581094853 -0.764968529926132 1.2462919226922326e-7
vn -0.5285004054577044 -0.8489330488507459 1.383087486999421e-7
vn -0.5285004054577044 -0.8489330488507459 1.383087486999421e-7
vn -0.5285004054577044 -0.8489330488507459 1.383087486999421e-7
vn -0.5285004054577044 -0.8489330488507459 1.383087486999421e-7
f 1/1/1 2/2/2 3/3/3
f 4/4/4 5/5/5 6/6/6
f 7/7/7 8/8/8 9/9/9
f 10/10/10 11/11/11 12/12/12
f 13/13/13 14/14/14 15/15/15
f 16/16/16 17/17/17 18/18/18
f 19/19/19 20/20/20 21/21/21
f 22/22/22 23/23/23 24/24/24
f 25/25/25 26/26/26 27/27/27
f 28/28/28 29/29/29 30/30/30
f 31/31/31 32/32/32 33/33/33
f 34/34/34 35/35/35 36/36/36
f 37/37/37 38/38/38 39/39/39
f 40/40/40 41/41/41 42/42/42
f 43/43/43 44/44/44 45/45/45
f 46/46/46 47/47/47 48/48/48
f 49/49/49 50/50/50 51/51/51
f 52/52/52 53/53/53 54/54/54
f 55/55/55 56/56/56 57/57/57
f 58/58/58 59/59/59 60/60/60
f 61/61/61 62/62/62 63/63/63
f 61/61/61 63/63/63 64/64/64
f 65/65/65 66/66/66 67/67/67
f 65/65/65 67/67/67 68/68/68
f 69/69/69 70/70/70 71/71/71
f 69/69/69 71/71/71 72/72/72
f 73/73/73 74/74/74 75/75/75
f 73/73/73 75/75/75 76/76/76
f 77/77/77 78/78/78 79/79/79
f 77/77/77 79/79/79 80/80/80
f 81/81/81 82/82/82 83/83/83
f 81/81/81 83/83/83 84/84/84
f 85/85/85 86/86/86 87/87/87
f 85/85/85 87/87/87 88/88/88
f 89/89/89 90/90/90 91/91/91
f 89/89/89 91/91/91 92/92/92
f 93/93/93 94/94/94 95/95/95
f 93/93/93 95/95/95 96/96/96
f 97/97/97 98/98/98 99/99/99
f 97/97/97 99/99/99 100/100/100
